<svg width="62" height="43" viewBox="0 0 62 43" fill="none" xmlns="http://www.w3.org/2000/svg">
<rect x="4.99998" y="4.99998" width="53" height="32" rx="7" fill="#F8C483"/>
<mask id="path-2-outside-1_202_2" maskUnits="userSpaceOnUse" x="-1.52588e-05" y="0" width="62" height="43" fill="black">
<rect fill="white" x="-1.52588e-05" width="62" height="43"/>
<path d="M17.5303 16.1965C18.1628 16.2269 18.7901 16.07 19.3313 15.7462C19.8724 15.4223 20.3026 14.9463 20.5664 14.3795C20.8301 13.8128 20.9154 13.1812 20.8111 12.5663C20.7068 11.9513 20.4178 11.3813 19.9813 10.9296C19.5448 10.4779 18.9809 10.1652 18.3622 10.032C17.7435 9.89875 17.0985 9.95101 16.5103 10.182C15.9221 10.4131 15.4176 10.8122 15.062 11.3281C14.7064 11.844 14.516 12.4529 14.5152 13.0763C14.5143 13.8782 14.8269 14.6496 15.3883 15.2305C15.9497 15.8115 16.7167 16.1574 17.5303 16.1965ZM54.9291 2H7.07091C5.72602 2 4.43621 2.52593 3.48522 3.46208C2.53424 4.39824 1.99998 5.66794 1.99998 6.99187L1.99998 36.0081C1.99998 37.3321 2.53424 38.6018 3.48522 39.5379C4.43621 40.4741 5.72602 41 7.07091 41H54.9291C56.274 41 57.5638 40.4741 58.5147 39.5379C59.4657 38.6018 60 37.3321 60 36.0081V6.99187C60 5.66794 59.4657 4.39824 58.5147 3.46208C57.5638 2.52593 56.274 2 54.9291 2V2ZM17.5303 7.61608C18.6275 7.61535 19.7003 7.93496 20.6129 8.5345C21.5256 9.13403 22.2371 9.98655 22.6575 10.9842C23.0779 11.9819 23.1883 13.0799 22.9747 14.1393C22.7611 15.1987 22.2331 16.172 21.4575 16.936C20.6819 17.7 19.6936 18.2204 18.6176 18.4314C17.5415 18.6424 16.426 18.5345 15.4123 18.1213C14.3985 17.7082 13.532 17.0083 12.9224 16.1103C12.3127 15.2123 11.9873 14.1564 11.9873 13.0763C12.0272 11.6406 12.6245 10.2745 13.6561 9.25889C14.6878 8.24329 16.0756 7.65539 17.5341 7.61608H17.5303ZM15.3114 32.8861H11.5087C11.3393 32.8907 11.1707 32.8618 11.0128 32.8011C10.855 32.7404 10.7111 32.6492 10.5897 32.5329C10.4682 32.4165 10.3717 32.2774 10.3058 32.1238C10.2399 31.9701 10.2059 31.805 10.2059 31.6382C10.2059 31.4714 10.2399 31.3062 10.3058 31.1526C10.3717 30.9989 10.4682 30.8598 10.5897 30.7434C10.7111 30.6271 10.855 30.5359 11.0128 30.4752C11.1707 30.4146 11.3393 30.3856 11.5087 30.3902H15.3123C15.4817 30.3856 15.6503 30.4146 15.8082 30.4752C15.966 30.5359 16.1099 30.6271 16.2314 30.7434C16.3528 30.8598 16.4493 30.9989 16.5152 31.1526C16.5811 31.3062 16.6151 31.4714 16.6151 31.6382C16.6151 31.805 16.5811 31.9701 16.5152 32.1238C16.4493 32.2774 16.3528 32.4165 16.2314 32.5329C16.1099 32.6492 15.966 32.7404 15.8082 32.8011C15.6503 32.8618 15.4817 32.8907 15.3123 32.8861H15.3114ZM13.8858 26.0225L10.8708 24.6183C10.6157 24.4567 10.4279 24.2104 10.3415 23.9242C10.2551 23.638 10.2757 23.3307 10.3997 23.0582L12.1428 19.6264C12.3239 19.403 12.5775 19.2476 12.8611 19.1861C13.1447 19.1246 13.4411 19.1608 13.7009 19.2886C13.9606 19.4164 14.168 19.628 14.2882 19.8882C14.4085 20.1484 14.4344 20.4414 14.3617 20.7181L13.2527 23.0582L14.6792 23.6824C15.6523 23.9958 16.6704 24.1524 17.6942 24.1462C18.7176 24.1471 19.7349 23.9907 20.7093 23.6824L22.1358 23.2187L20.8676 20.7227C20.7205 20.4124 20.7047 20.0573 20.8236 19.7355C20.9425 19.4137 21.1864 19.1516 21.5017 19.0068C21.8169 18.8621 22.1776 18.8465 22.5045 18.9636C22.8314 19.0806 23.0977 19.3207 23.2447 19.6311L24.9878 23.0629C25.1118 23.3354 25.1324 23.6426 25.046 23.9289C24.9596 24.2151 24.7718 24.4613 24.5167 24.6229L21.5017 25.8714C20.2748 26.274 18.9912 26.4847 17.698 26.4956C16.4043 26.49 15.1199 26.2792 13.8943 25.8714L13.8858 26.0225ZM39.2499 32.7349H20.8581C20.6887 32.7395 20.5202 32.7106 20.3623 32.6499C20.2045 32.5892 20.0606 32.498 19.9391 32.3817C19.8177 32.2654 19.7212 32.1263 19.6552 31.9726C19.5893 31.8189 19.5554 31.6538 19.5554 31.487C19.5554 31.3202 19.5893 31.1551 19.6552 31.0014C19.7212 30.8477 19.8177 30.7086 19.9391 30.5923C20.0606 30.4759 20.2045 30.3847 20.3623 30.3241C20.5202 30.2634 20.6887 30.2345 20.8581 30.239H39.2405C39.4099 30.2345 39.5785 30.2634 39.7363 30.3241C39.8941 30.3847 40.038 30.4759 40.1595 30.5923C40.2809 30.7086 40.3775 30.8477 40.4434 31.0014C40.5093 31.1551 40.5432 31.3202 40.5432 31.487C40.5432 31.6538 40.5093 31.8189 40.4434 31.9726C40.3775 32.1263 40.2809 32.2654 40.1595 32.3817C40.038 32.498 39.8941 32.5892 39.7363 32.6499C39.5785 32.7106 39.4099 32.7395 39.2405 32.7349H39.2499ZM28.4645 21.6558C28.4645 21.3247 28.5981 21.0072 28.836 20.773C29.0738 20.5389 29.3964 20.4074 29.7327 20.4074H47.3198C47.6501 20.4163 47.9638 20.5516 48.1942 20.7847C48.4246 21.0178 48.5535 21.3301 48.5535 21.6554C48.5535 21.9806 48.4246 22.2929 48.1942 22.526C47.9638 22.7591 47.6501 22.8945 47.3198 22.9033H29.7327C29.3964 22.9033 29.0738 22.7718 28.836 22.5377C28.5981 22.3035 28.4645 21.986 28.4645 21.6549V21.6558ZM50.968 32.7322H44.7872C44.6178 32.7367 44.4492 32.7078 44.2914 32.6471C44.1335 32.5865 43.9896 32.4953 43.8682 32.3789C43.7468 32.2626 43.6502 32.1235 43.5843 31.9698C43.5184 31.8161 43.4844 31.651 43.4844 31.4842C43.4844 31.3174 43.5184 31.1523 43.5843 30.9986C43.6502 30.8449 43.7468 30.7058 43.8682 30.5895C43.9896 30.4731 44.1335 30.3819 44.2914 30.3213C44.4492 30.2606 44.6178 30.2317 44.7872 30.2362H50.806C50.9754 30.2317 51.144 30.2606 51.3018 30.3213C51.4597 30.3819 51.6036 30.4731 51.725 30.5895C51.8464 30.7058 51.943 30.8449 52.0089 30.9986C52.0748 31.1523 52.1088 31.3174 52.1088 31.4842C52.1088 31.651 52.0748 31.8161 52.0089 31.9698C51.943 32.1235 51.8464 32.2626 51.725 32.3789C51.6036 32.4953 51.4597 32.5865 51.3018 32.6471C51.144 32.7078 50.9754 32.7367 50.806 32.7322H50.968ZM50.806 15.1039H29.7327C29.4025 15.095 29.0888 14.9596 28.8584 14.7266C28.628 14.4935 28.4991 14.1811 28.4991 13.8559C28.4991 13.5307 28.628 13.2183 28.8584 12.9853C29.0888 12.7522 29.4025 12.6168 29.7327 12.6079H50.968C51.2983 12.6168 51.612 12.7522 51.8424 12.9853C52.0728 13.2183 52.2017 13.5307 52.2017 13.8559C52.2017 14.1811 52.0728 14.4935 51.8424 14.7266C51.612 14.9596 51.2983 15.095 50.968 15.1039"/>
</mask>
<path d="M16.5103 10.182L17.2414 12.0436L16.5103 10.182ZM14.5152 13.0763L16.5152 13.0788L14.5152 13.0763ZM54.9291 2V4H56.9291V2H54.9291ZM1.99998 6.99187H-1.52588e-05H1.99998ZM1.99998 36.0081H-1.52588e-05H1.99998ZM7.07091 41V43V41ZM60 36.0081H62H60ZM54.9291 2V0H52.9291V2H54.9291ZM17.5303 7.61608L17.5289 5.61608L17.5303 9.61608V7.61608ZM11.9873 13.0763L9.98809 13.0207L9.98731 13.0485V13.0763H11.9873ZM17.5341 7.61608L17.5879 9.61536L17.5341 5.61608V7.61608ZM11.5087 32.8861V30.8861H11.4818L11.455 30.8868L11.5087 32.8861ZM11.5087 30.3902L11.455 32.3895L11.4818 32.3902H11.5087V30.3902ZM15.3123 30.3902V32.3902H15.3392L15.366 32.3895L15.3123 30.3902ZM15.3123 32.8861L15.366 30.8868L15.3392 30.8861H15.3123V32.8861ZM13.8858 26.0225L13.0414 27.8355L15.7174 29.0819L15.8827 26.1345L13.8858 26.0225ZM10.8708 24.6183L9.80045 26.3078L9.90944 26.3768L10.0264 26.4313L10.8708 24.6183ZM10.3997 23.0582L8.61654 22.1525L8.59705 22.1909L8.57924 22.23L10.3997 23.0582ZM12.1428 19.6264L10.5893 18.3667L10.4557 18.5315L10.3596 18.7207L12.1428 19.6264ZM14.3617 20.7181L16.169 21.5746L16.2486 21.4065L16.2959 21.2267L14.3617 20.7181ZM13.2527 23.0582L11.4454 22.2017L10.5627 24.0642L12.4509 24.8905L13.2527 23.0582ZM14.6792 23.6824L13.8774 25.5147L13.97 25.5552L14.0661 25.5862L14.6792 23.6824ZM17.6942 24.1462L17.6961 22.1461L17.6821 22.1462L17.6942 24.1462ZM20.7093 23.6824L21.3125 25.5893L21.3201 25.5869L21.3276 25.5844L20.7093 23.6824ZM22.1358 23.2187L22.7541 25.1207L24.9782 24.3976L23.9188 22.3127L22.1358 23.2187ZM20.8676 20.7227L19.0602 21.5792L19.072 21.6041L19.0845 21.6287L20.8676 20.7227ZM23.2447 19.6311L21.4374 20.4876L21.4491 20.5123L21.4616 20.5368L23.2447 19.6311ZM24.9878 23.0629L26.8083 22.2347L26.7905 22.1955L26.771 22.1572L24.9878 23.0629ZM24.5167 24.6229L25.2818 26.4708L25.4413 26.4048L25.5871 26.3124L24.5167 24.6229ZM21.5017 25.8714L22.1253 27.7716L22.1971 27.7481L22.2668 27.7192L21.5017 25.8714ZM17.698 26.4956L17.6893 28.4956L17.7021 28.4956L17.7149 28.4955L17.698 26.4956ZM13.8943 25.8714L14.5258 23.9737L12.0439 23.1478L11.8975 25.7594L13.8943 25.8714ZM20.8581 32.7349V30.7349H20.8313L20.8045 30.7357L20.8581 32.7349ZM20.8581 30.239L20.8045 32.2383L20.8313 32.239H20.8581V30.239ZM39.2405 30.239V32.239H39.2673L39.2941 32.2383L39.2405 30.239ZM40.5432 31.487H38.5432H40.5432ZM39.2405 32.7349V30.7349L39.1868 34.7342L39.2405 32.7349ZM47.3198 20.4074L47.3735 18.4081L47.3467 18.4074H47.3198V20.4074ZM47.3198 22.9033V24.9033H47.3467L47.3735 24.9026L47.3198 22.9033ZM29.7327 22.9033V20.9033V22.9033ZM44.7872 32.7322V30.7322H44.7604L44.7336 30.7329L44.7872 32.7322ZM43.4844 31.4842H45.4844H43.4844ZM44.7872 30.2362L44.7336 32.2355L44.7604 32.2362H44.7872V30.2362ZM50.806 30.2362V32.2362H50.8328L50.8596 32.2355L50.806 30.2362ZM52.1088 31.4842H50.1088H52.1088ZM50.806 32.7322V30.7322L50.7523 34.7314L50.806 32.7322ZM29.7327 15.1039L29.6791 17.1032L29.7059 17.1039H29.7327V15.1039ZM28.4991 13.8559H30.4991H28.4991ZM29.7327 12.6079V10.6079H29.7059L29.6791 10.6087L29.7327 12.6079ZM50.968 12.6079L51.0217 10.6087L50.9949 10.6079H50.968V12.6079ZM52.2017 13.8559H54.2017H52.2017ZM17.4343 18.1942C18.459 18.2434 19.4773 17.9896 20.3583 17.4624L18.3043 14.03C18.103 14.1505 17.8667 14.2103 17.6263 14.1988L17.4343 18.1942ZM20.3583 17.4624C21.2397 16.9349 21.9454 16.1565 22.3797 15.2234L18.7531 13.5357C18.6598 13.7362 18.5052 13.9098 18.3043 14.03L20.3583 17.4624ZM22.3797 15.2234C22.8141 14.2899 22.9552 13.2475 22.7829 12.2319L18.8393 12.9007C18.8756 13.1149 18.8462 13.3356 18.7531 13.5357L22.3797 15.2234ZM22.7829 12.2319C22.6107 11.2164 22.1341 10.2792 21.4195 9.53979L18.5431 12.3193C18.7015 12.4833 18.8029 12.6863 18.8393 12.9007L22.7829 12.2319ZM21.4195 9.53979C20.7053 8.80069 19.7864 8.29287 18.7833 8.07682L17.9411 11.9872C18.1753 12.0376 18.3843 12.155 18.5431 12.3193L21.4195 9.53979ZM18.7833 8.07682C17.7803 7.86081 16.7344 7.94529 15.7792 8.32046L17.2414 12.0436C17.4626 11.9567 17.7068 11.9367 17.9411 11.9872L18.7833 8.07682ZM15.7792 8.32046C14.8236 8.69574 13.999 9.34624 13.4153 10.1931L16.7087 12.4632C16.8362 12.2782 17.0205 12.1304 17.2414 12.0436L15.7792 8.32046ZM13.4153 10.1931C12.8314 11.0403 12.5165 12.0437 12.5152 13.0739L16.5152 13.0788C16.5155 12.8621 16.5815 12.6477 16.7087 12.4632L13.4153 10.1931ZM12.5152 13.0739C12.5136 14.3995 13.0308 15.669 13.9501 16.6203L16.8265 13.8408C16.623 13.6301 16.5149 13.3568 16.5152 13.0788L12.5152 13.0739ZM13.9501 16.6203C14.8684 17.5707 16.1169 18.1309 17.4343 18.1942L17.6263 14.1988C17.3166 14.1839 17.031 14.0523 16.8265 13.8408L13.9501 16.6203ZM54.9291 0H7.07091V4H54.9291V0ZM7.07091 0C5.20564 0 3.41055 0.729129 2.08216 2.0368L4.88828 4.88736C5.46187 4.32273 6.2464 4 7.07091 4V0ZM2.08216 2.0368C0.752716 3.34553 -1.52588e-05 5.12728 -1.52588e-05 6.99187H3.99998C3.99998 6.20861 4.31577 5.45095 4.88828 4.88736L2.08216 2.0368ZM-1.52588e-05 6.99187V36.0081H3.99998V6.99187H-1.52588e-05ZM-1.52588e-05 36.0081C-1.52588e-05 37.8727 0.752716 39.6545 2.08216 40.9632L4.88828 38.1126C4.31577 37.549 3.99998 36.7914 3.99998 36.0081H-1.52588e-05ZM2.08216 40.9632C3.41055 42.2709 5.20564 43 7.07091 43V39C6.2464 39 5.46187 38.6773 4.88828 38.1126L2.08216 40.9632ZM7.07091 43H54.9291V39H7.07091V43ZM54.9291 43C56.7943 43 58.5894 42.2709 59.9178 40.9632L57.1117 38.1126C56.5381 38.6773 55.7536 39 54.9291 39V43ZM59.9178 40.9632C61.2473 39.6545 62 37.8727 62 36.0081H58C58 36.7914 57.6842 37.549 57.1117 38.1126L59.9178 40.9632ZM62 36.0081V6.99187H58V36.0081H62ZM62 6.99187C62 5.12728 61.2473 3.34553 59.9178 2.0368L57.1117 4.88736C57.6842 5.45095 58 6.20861 58 6.99187H62ZM59.9178 2.0368C58.5894 0.729129 56.7943 0 54.9291 0V4C55.7536 4 56.5381 4.32273 57.1117 4.88736L59.9178 2.0368ZM52.9291 2V2H56.9291V2H52.9291ZM17.5316 9.61608C18.2401 9.61561 18.9304 9.82215 19.5148 10.2061L21.711 6.86291C20.4701 6.04778 19.0148 5.61509 17.5289 5.61608L17.5316 9.61608ZM19.5148 10.2061C20.0989 10.5898 20.5495 11.1321 20.8144 11.7608L24.5005 10.2076C23.9247 8.84097 22.9522 7.67827 21.711 6.86291L19.5148 10.2061ZM20.8144 11.7608C21.0792 12.3892 21.1482 13.0789 21.0141 13.744L24.9352 14.5346C25.2283 13.0809 25.0766 11.5746 24.5005 10.2076L20.8144 11.7608ZM21.0141 13.744C20.88 14.4094 20.5476 15.025 20.054 15.5112L22.8611 18.3608C23.9186 17.3191 24.6422 15.9881 24.9352 14.5346L21.0141 13.744ZM20.054 15.5112C19.56 15.9978 18.9268 16.3327 18.2327 16.4688L19.0024 20.394C20.4604 20.1082 21.8039 19.4022 22.8611 18.3608L20.054 15.5112ZM18.2327 16.4688C17.5385 16.6049 16.8192 16.535 16.1671 16.2692L14.6574 19.9734C16.0328 20.534 17.5444 20.6799 19.0024 20.394L18.2327 16.4688ZM16.1671 16.2692C15.5153 16.0036 14.9632 15.5556 14.5771 14.9869L11.2677 17.2336C12.1009 18.461 13.2818 19.4127 14.6574 19.9734L16.1671 16.2692ZM14.5771 14.9869C14.1912 14.4186 13.9873 13.7538 13.9873 13.0763L9.98731 13.0763C9.98732 14.5591 10.4342 16.0059 11.2677 17.2336L14.5771 14.9869ZM13.9865 13.1319C14.012 12.2172 14.3924 11.3406 15.0592 10.6842L12.2531 7.83361C10.8565 9.20842 10.0425 11.064 9.98809 13.0207L13.9865 13.1319ZM15.0592 10.6842C15.7269 10.0269 16.6312 9.64114 17.5879 9.61536L17.4802 5.61681C15.5199 5.66964 13.6487 6.45971 12.2531 7.83361L15.0592 10.6842ZM17.5341 5.61608H17.5303V9.61608H17.5341V5.61608ZM15.3114 30.8861H11.5087V34.8861H15.3114V30.8861ZM11.455 30.8868C11.5483 30.8843 11.6419 30.9002 11.7304 30.9342L10.2953 34.6679C10.6995 34.8233 11.1302 34.897 11.5623 34.8854L11.455 30.8868ZM11.7304 30.9342C11.819 30.9683 11.9018 31.0203 11.9732 31.0886L9.20615 33.9771C9.52041 34.2782 9.891 34.5125 10.2953 34.6679L11.7304 30.9342ZM11.9732 31.0886C12.0446 31.1571 12.1032 31.2407 12.1438 31.3354L8.46771 32.9121C8.64017 33.3142 8.89182 33.676 9.20615 33.9771L11.9732 31.0886ZM12.1438 31.3354C12.1845 31.4302 12.2059 31.5333 12.2059 31.6382H8.20591C8.20591 32.0767 8.29523 32.51 8.46771 32.9121L12.1438 31.3354ZM12.2059 31.6382C12.2059 31.7431 12.1845 31.8461 12.1438 31.9409L8.46771 30.3642C8.29523 30.7664 8.20591 31.1996 8.20591 31.6382H12.2059ZM12.1438 31.9409C12.1032 32.0357 12.0446 32.1193 11.9732 32.1877L9.20615 29.2992C8.89181 29.6003 8.64017 29.9621 8.46771 30.3642L12.1438 31.9409ZM11.9732 32.1877C11.9018 32.2561 11.819 32.308 11.7304 32.3421L10.2953 28.6084C9.89103 28.7638 9.52042 28.9981 9.20615 29.2992L11.9732 32.1877ZM11.7304 32.3421C11.6419 32.3761 11.5484 32.392 11.455 32.3895L11.5623 28.3909C11.1302 28.3793 10.6995 28.453 10.2953 28.6084L11.7304 32.3421ZM11.5087 32.3902H15.3123V28.3902H11.5087V32.3902ZM15.366 32.3895C15.2726 32.392 15.1791 32.3761 15.0906 32.3421L16.5257 28.6084C16.1215 28.453 15.6908 28.3793 15.2587 28.3909L15.366 32.3895ZM15.0906 32.3421C15.002 32.308 14.9192 32.2561 14.8478 32.1877L17.6149 29.2992C17.3006 28.9981 16.93 28.7638 16.5257 28.6084L15.0906 32.3421ZM14.8478 32.1877C14.7764 32.1193 14.7178 32.0356 14.6772 31.9409L18.3533 30.3642C18.1809 29.9621 17.9292 29.6003 17.6149 29.2992L14.8478 32.1877ZM14.6772 31.9409C14.6365 31.8461 14.6151 31.7431 14.6151 31.6382H18.6151C18.6151 31.1996 18.5258 30.7664 18.3533 30.3642L14.6772 31.9409ZM14.6151 31.6382C14.6151 31.5333 14.6365 31.4302 14.6772 31.3354L18.3533 32.9121C18.5258 32.51 18.6151 32.0767 18.6151 31.6382H14.6151ZM14.6772 31.3354C14.7178 31.2407 14.7764 31.1571 14.8478 31.0886L17.6149 33.9771C17.9292 33.676 18.1808 33.3142 18.3533 32.9121L14.6772 31.3354ZM14.8478 31.0886C14.9192 31.0203 15.002 30.9683 15.0906 30.9342L16.5257 34.6679C16.93 34.5125 17.3006 34.2782 17.6149 33.9771L14.8478 31.0886ZM15.0906 30.9342C15.1791 30.9002 15.2727 30.8843 15.366 30.8868L15.2587 34.8854C15.6908 34.897 16.1215 34.8233 16.5257 34.6679L15.0906 30.9342ZM15.3123 30.8861H15.3114V34.8861H15.3123V30.8861ZM14.7303 24.2095L11.7152 22.8053L10.0264 26.4313L13.0414 27.8355L14.7303 24.2095ZM11.9412 22.9288C12.0874 23.0215 12.2022 23.1675 12.2561 23.3461L8.4269 24.5024C8.65369 25.2534 9.14407 25.8919 9.80045 26.3078L11.9412 22.9288ZM12.2561 23.3461C12.3102 23.5252 12.2969 23.7178 12.2202 23.8864L8.57924 22.23C8.25456 22.9437 8.19994 23.7508 8.4269 24.5024L12.2561 23.3461ZM12.1829 23.9639L13.9259 20.5321L10.3596 18.7207L8.61654 22.1525L12.1829 23.9639ZM13.6962 20.8861C13.5881 21.0195 13.4417 21.1067 13.2849 21.1407L12.4373 17.2315C11.7133 17.3885 11.0598 17.7866 10.5893 18.3667L13.6962 20.8861ZM13.2849 21.1407C13.1285 21.1746 12.9643 21.1551 12.818 21.0831L14.5838 17.494C13.9179 17.1664 13.1609 17.0746 12.4373 17.2315L13.2849 21.1407ZM12.818 21.0831C12.6711 21.0108 12.5468 20.8875 12.4728 20.7274L16.1037 19.0491C15.7891 18.3685 15.2502 17.8219 14.5838 17.494L12.818 21.0831ZM12.4728 20.7274C12.3985 20.5666 12.3818 20.383 12.4274 20.2095L16.2959 21.2267C16.4871 20.4997 16.4185 19.7303 16.1037 19.0491L12.4728 20.7274ZM12.5543 19.8616L11.4454 22.2017L15.06 23.9147L16.169 21.5746L12.5543 19.8616ZM12.4509 24.8905L13.8774 25.5147L15.481 21.8502L14.0545 21.226L12.4509 24.8905ZM14.0661 25.5862C15.2415 25.9647 16.4707 26.1537 17.7064 26.1462L17.6821 22.1462C16.8701 22.1512 16.0631 22.0269 15.2922 21.7787L14.0661 25.5862ZM17.6924 26.1462C18.9208 26.1473 20.1421 25.9595 21.3125 25.5893L20.1061 21.7756C19.3277 22.0218 18.5145 22.1469 17.6961 22.1462L17.6924 26.1462ZM21.3276 25.5844L22.7541 25.1207L21.5174 21.3167L20.0909 21.7804L21.3276 25.5844ZM23.9188 22.3127L22.6506 19.8168L19.0845 21.6287L20.3527 24.1247L23.9188 22.3127ZM22.6749 19.8663C22.758 20.0417 22.7674 20.2452 22.6996 20.4288L18.9476 19.0422C18.6419 19.8694 18.683 20.7831 19.0602 21.5792L22.6749 19.8663ZM22.6996 20.4288C22.6321 20.6113 22.4976 20.7503 22.3363 20.8244L20.667 17.1893C19.8752 17.553 19.2529 18.2161 18.9476 19.0422L22.6996 20.4288ZM22.3363 20.8244C22.1759 20.898 21.995 20.9055 21.8302 20.8465L23.1788 17.0807C22.3603 16.7875 21.4578 16.8262 20.667 17.1893L22.3363 20.8244ZM21.8302 20.8465C21.6646 20.7872 21.52 20.6619 21.4374 20.4876L25.0521 18.7746C24.6753 17.9796 23.9982 17.3741 23.1788 17.0807L21.8302 20.8465ZM21.4616 20.5368L23.2046 23.9686L26.771 22.1572L25.0279 18.7254L21.4616 20.5368ZM23.1673 23.891C23.0906 23.7224 23.0773 23.5298 23.1314 23.3507L26.9606 24.507C27.1876 23.7554 27.133 22.9484 26.8083 22.2347L23.1673 23.891ZM23.1314 23.3507C23.1853 23.1721 23.3001 23.0261 23.4463 22.9335L25.5871 26.3124C26.2434 25.8966 26.7338 25.258 26.9606 24.507L23.1314 23.3507ZM23.7516 22.7751L20.7365 24.0235L22.2668 27.7192L25.2818 26.4708L23.7516 22.7751ZM20.878 23.9711C19.8473 24.3094 18.7685 24.4865 17.6811 24.4956L17.7149 28.4955C19.214 28.4829 20.7022 28.2387 22.1253 27.7716L20.878 23.9711ZM17.7067 24.4956C16.6243 24.4909 15.5502 24.3145 14.5258 23.9737L13.2629 27.7691C14.6897 28.2438 16.1842 28.489 17.6893 28.4956L17.7067 24.4956ZM11.8975 25.7594L11.889 25.9105L15.8827 26.1345L15.8912 25.9834L11.8975 25.7594ZM39.2499 30.7349H20.8581V34.7349H39.2499V30.7349ZM20.8045 30.7357C20.8978 30.7332 20.9914 30.749 21.0799 30.7831L19.6447 34.5167C20.0489 34.6721 20.4797 34.7458 20.9118 34.7342L20.8045 30.7357ZM21.0799 30.7831C21.1684 30.8171 21.2512 30.8691 21.3226 30.9374L18.5556 33.826C18.8699 34.127 19.2405 34.3614 19.6447 34.5167L21.0799 30.7831ZM21.3226 30.9374C21.3941 31.0059 21.4527 31.0895 21.4933 31.1842L17.8172 32.7609C17.9896 33.163 18.2413 33.5248 18.5556 33.826L21.3226 30.9374ZM21.4933 31.1842C21.534 31.279 21.5554 31.3821 21.5554 31.487H17.5554C17.5554 31.9255 17.6447 32.3588 17.8172 32.7609L21.4933 31.1842ZM21.5554 31.487C21.5554 31.5919 21.534 31.6949 21.4933 31.7897L17.8172 30.213C17.6447 30.6152 17.5554 31.0485 17.5554 31.487H21.5554ZM21.4933 31.7897C21.4527 31.8845 21.3941 31.9681 21.3226 32.0365L18.5556 29.148C18.2413 29.4491 17.9896 29.8109 17.8172 30.213L21.4933 31.7897ZM21.3226 32.0365C21.2512 32.1049 21.1684 32.1569 21.0799 32.1909L19.6447 28.4572C19.2405 28.6126 18.8699 28.8469 18.5556 29.148L21.3226 32.0365ZM21.0799 32.1909C20.9914 32.2249 20.8978 32.2408 20.8045 32.2383L20.9118 28.2397C20.4797 28.2281 20.0489 28.3018 19.6447 28.4572L21.0799 32.1909ZM20.8581 32.239H39.2405V28.239H20.8581V32.239ZM39.2941 32.2383C39.2008 32.2408 39.1072 32.2249 39.0187 32.1909L40.4539 28.4572C40.0497 28.3019 39.619 28.2281 39.1868 28.2397L39.2941 32.2383ZM39.0187 32.1909C38.9302 32.1569 38.8474 32.1049 38.776 32.0365L41.543 29.148C41.2287 28.8469 40.8581 28.6126 40.4539 28.4572L39.0187 32.1909ZM38.776 32.0365C38.7045 31.9681 38.6459 31.8845 38.6053 31.7897L42.2814 30.213C42.109 29.8109 41.8573 29.4491 41.543 29.148L38.776 32.0365ZM38.6053 31.7897C38.5646 31.6949 38.5432 31.5919 38.5432 31.487H42.5432C42.5432 31.0485 42.4539 30.6152 42.2814 30.213L38.6053 31.7897ZM38.5432 31.487C38.5432 31.3821 38.5646 31.279 38.6053 31.1842L42.2814 32.7609C42.4539 32.3588 42.5432 31.9255 42.5432 31.487H38.5432ZM38.6053 31.1842C38.6459 31.0895 38.7045 31.0059 38.776 30.9374L41.543 33.826C41.8573 33.5249 42.109 33.163 42.2814 32.7609L38.6053 31.1842ZM38.776 30.9374C38.8474 30.8691 38.9302 30.8171 39.0187 30.7831L40.4539 34.5167C40.8581 34.3614 41.2287 34.127 41.543 33.826L38.776 30.9374ZM39.0187 30.7831C39.1072 30.749 39.2008 30.7332 39.2941 30.7357L39.1868 34.7342C39.619 34.7458 40.0497 34.6721 40.4539 34.5167L39.0187 30.7831ZM39.2405 34.7349H39.2499V30.7349H39.2405V34.7349ZM30.4645 21.6558C30.4645 21.8654 30.3797 22.0599 30.239 22.1983L27.4329 19.3478C26.8166 19.9545 26.4645 20.784 26.4645 21.6558H30.4645ZM30.239 22.1983C30.0995 22.3357 29.9168 22.4074 29.7327 22.4074V18.4074C28.876 18.4074 28.0481 18.7421 27.4329 19.3478L30.239 22.1983ZM29.7327 22.4074H47.3198V18.4074H29.7327V22.4074ZM47.2662 22.4067C47.0854 22.4018 46.9073 22.3278 46.7718 22.1907L49.6165 19.3787C49.0202 18.7755 48.2148 18.4307 47.3735 18.4081L47.2662 22.4067ZM46.7718 22.1907C46.6353 22.0527 46.5535 21.8611 46.5535 21.6554H50.5535C50.5535 20.7992 50.2138 19.9829 49.6165 19.3787L46.7718 22.1907ZM46.5535 21.6554C46.5535 21.4496 46.6353 21.2581 46.7718 21.12L49.6165 23.932C50.2138 23.3278 50.5535 22.5116 50.5535 21.6554H46.5535ZM46.7718 21.12C46.9073 20.9829 47.0854 20.9089 47.2662 20.904L47.3735 24.9026C48.2148 24.88 49.0202 24.5353 49.6165 23.932L46.7718 21.12ZM47.3198 20.9033H29.7327V24.9033H47.3198V20.9033ZM29.7327 20.9033C29.9168 20.9033 30.0995 20.975 30.239 21.1124L27.4329 23.9629C28.0481 24.5686 28.876 24.9033 29.7327 24.9033V20.9033ZM30.239 21.1124C30.3797 21.2508 30.4645 21.4453 30.4645 21.6549H26.4645C26.4645 22.5267 26.8166 23.3563 27.4329 23.9629L30.239 21.1124ZM26.4645 21.6549V21.6558H30.4645V21.6549H26.4645ZM50.968 30.7322H44.7872V34.7322H50.968V30.7322ZM44.7336 30.7329C44.8269 30.7304 44.9204 30.7462 45.0089 30.7803L43.5738 34.514C43.978 34.6693 44.4088 34.743 44.8409 34.7314L44.7336 30.7329ZM45.0089 30.7803C45.0975 30.8143 45.1804 30.8663 45.2517 30.9347L42.4847 33.8232C42.7989 34.1242 43.1695 34.3586 43.5738 34.514L45.0089 30.7803ZM45.2517 30.9347C45.3231 31.0031 45.3817 31.0867 45.4224 31.1814L41.7462 32.7582C41.9187 33.1603 42.1704 33.5221 42.4847 33.8232L45.2517 30.9347ZM45.4224 31.1814C45.4631 31.2763 45.4844 31.3793 45.4844 31.4842H41.4844C41.4844 31.9227 41.5738 32.356 41.7462 32.7582L45.4224 31.1814ZM45.4844 31.4842C45.4844 31.5891 45.4631 31.6921 45.4224 31.787L41.7462 30.2102C41.5738 30.6124 41.4844 31.0457 41.4844 31.4842H45.4844ZM45.4224 31.787C45.3817 31.8817 45.3232 31.9653 45.2517 32.0337L42.4847 29.1452C42.1704 29.4463 41.9187 29.8081 41.7462 30.2102L45.4224 31.787ZM45.2517 32.0337C45.1803 32.1021 45.0975 32.1541 45.0089 32.1881L43.5738 28.4544C43.1695 28.6098 42.799 28.8442 42.4847 29.1452L45.2517 32.0337ZM45.0089 32.1881C44.9204 32.2221 44.8269 32.238 44.7336 32.2355L44.8409 28.2369C44.4088 28.2254 43.978 28.2991 43.5738 28.4544L45.0089 32.1881ZM44.7872 32.2362H50.806V28.2362H44.7872V32.2362ZM50.8596 32.2355C50.7663 32.238 50.6728 32.2221 50.5843 32.1881L52.0194 28.4544C51.6152 28.2991 51.1845 28.2254 50.7523 28.2369L50.8596 32.2355ZM50.5843 32.1881C50.4957 32.1541 50.4129 32.1021 50.3415 32.0337L53.1085 29.1452C52.7942 28.8442 52.4236 28.6098 52.0194 28.4544L50.5843 32.1881ZM50.3415 32.0337C50.27 31.9653 50.2114 31.8817 50.1708 31.787L53.847 30.2102C53.6745 29.8082 53.4229 29.4463 53.1085 29.1452L50.3415 32.0337ZM50.1708 31.787C50.1302 31.6922 50.1088 31.5891 50.1088 31.4842H54.1088C54.1088 31.0457 54.0194 30.6124 53.847 30.2102L50.1708 31.787ZM50.1088 31.4842C50.1088 31.3793 50.1302 31.2762 50.1708 31.1814L53.847 32.7582C54.0194 32.356 54.1088 31.9227 54.1088 31.4842H50.1088ZM50.1708 31.1814C50.2115 31.0867 50.27 31.0031 50.3415 30.9347L53.1085 33.8232C53.4229 33.5221 53.6745 33.1602 53.847 32.7582L50.1708 31.1814ZM50.3415 30.9347C50.4129 30.8663 50.4957 30.8143 50.5843 30.7803L52.0194 34.514C52.4237 34.3586 52.7943 34.1242 53.1085 33.8232L50.3415 30.9347ZM50.5843 30.7803C50.6728 30.7462 50.7663 30.7304 50.8596 30.7329L50.7523 34.7314C51.1844 34.743 51.6152 34.6693 52.0194 34.514L50.5843 30.7803ZM50.806 34.7322H50.968V30.7322H50.806V34.7322ZM50.806 13.1039H29.7327V17.1039H50.806V13.1039ZM29.7864 13.1046C29.9672 13.1095 30.1453 13.1835 30.2808 13.3206L27.436 16.1326C28.0323 16.7358 28.8378 17.0806 29.6791 17.1032L29.7864 13.1046ZM30.2808 13.3206C30.4172 13.4586 30.4991 13.6501 30.4991 13.8559H26.4991C26.4991 14.7121 26.8388 15.5284 27.436 16.1326L30.2808 13.3206ZM30.4991 13.8559C30.4991 14.0617 30.4172 14.2532 30.2808 14.3913L27.436 11.5792C26.8388 12.1834 26.4991 12.9997 26.4991 13.8559H30.4991ZM30.2808 14.3913C30.1453 14.5283 29.9672 14.6024 29.7864 14.6072L29.6791 10.6087C28.8378 10.6312 28.0323 10.976 27.436 11.5792L30.2808 14.3913ZM29.7327 14.6079H50.968V10.6079H29.7327V14.6079ZM50.9144 14.6072C50.7336 14.6024 50.5555 14.5283 50.42 14.3913L53.2647 11.5792C52.6684 10.976 51.863 10.6312 51.0217 10.6087L50.9144 14.6072ZM50.42 14.3913C50.2835 14.2532 50.2017 14.0617 50.2017 13.8559H54.2017C54.2017 12.9997 53.862 12.1834 53.2647 11.5792L50.42 14.3913ZM50.2017 13.8559C50.2017 13.6501 50.2835 13.4586 50.42 13.3206L53.2647 16.1326C53.862 15.5284 54.2017 14.7121 54.2017 13.8559H50.2017ZM50.42 13.3206C50.5555 13.1835 50.7336 13.1095 50.9144 13.1046L51.0217 17.1032C51.863 17.0806 52.6684 16.7358 53.2647 16.1326L50.42 13.3206Z" fill="white" mask="url(#path-2-outside-1_202_2)"/>
<rect x="5.99998" y="5.99998" width="51" height="30" rx="2" stroke="#F8C483" stroke-width="2"/>
</svg>
