<svg xmlns="http://www.w3.org/2000/svg" xmlns:xlink="http://www.w3.org/1999/xlink" width="112" height="112" viewBox="0 0 112 112"><defs><clipPath id="a"><rect width="112" height="112" transform="translate(-0.226)" fill="#fff" stroke="#707070" stroke-width="1"/></clipPath><clipPath id="b"><rect width="66.648" height="63.867" fill="none"/></clipPath></defs><g transform="translate(0.226)"><circle cx="56" cy="56" r="56" transform="translate(-0.226)" fill="#f593c0"/><g clip-path="url(#a)"><g transform="translate(56.426 56)"><g transform="translate(-33.324 -31.934)" clip-path="url(#b)"><path d="M65.25,17.007H59.968a1.4,1.4,0,0,0-.621-2.641H54.841a1.4,1.4,0,0,0-.621,2.641H47.461V6.6a1.4,1.4,0,0,0-1.4-1.4H20.585a1.4,1.4,0,0,0-1.4,1.4V17.007H12.351a1.4,1.4,0,0,0-.621-2.641H7.3a1.4,1.4,0,0,0-.621,2.641H1.4a1.4,1.4,0,0,0-1.4,1.4V53.982a6.991,6.991,0,0,0,6.991,6.991H59.657a6.913,6.913,0,0,0,6.991-6.991V18.405a1.4,1.4,0,0,0-1.4-1.4M21.983,10.871H44.665v6.137H21.983Zm24.08,32.547a1.087,1.087,0,0,1-1.087,1.088H39.15v5.748a1.087,1.087,0,0,1-1.087,1.165H28.9a1.087,1.087,0,0,1-1.087-1.088V44.583H22.061a1.087,1.087,0,0,1-1.087-1.165V34.329a1.088,1.088,0,0,1,1.088-1.088h5.748V27.416A1.088,1.088,0,0,1,28.9,26.329h9.166a1.088,1.088,0,0,1,1.087,1.088v5.748H44.9a1.087,1.087,0,0,1,1.087,1.087Z" transform="translate(0 -1.161)" fill="#fff"/></g></g></g></g></svg>