<svg xmlns="http://www.w3.org/2000/svg" xmlns:xlink="http://www.w3.org/1999/xlink" width="112" height="112" viewBox="0 0 112 112"><defs><clipPath id="a"><rect width="112" height="112" transform="translate(0.373)" fill="#fff" stroke="#707070" stroke-width="1"/></clipPath><clipPath id="b"><rect width="54.639" height="53.813" fill="none"/></clipPath></defs><g transform="translate(-0.373)"><circle cx="56" cy="56" r="56" transform="translate(0.373)" fill="#8dd9f6"/><g clip-path="url(#a)"><g transform="translate(55.934 52)"><g transform="translate(-27.319 -26.906)" clip-path="url(#b)"><path d="M32.689,26.434V9.677H49.446V24.546h-.118l-1.3.354h-.236V15.577a1.18,1.18,0,0,0-.354-.944,1.062,1.062,0,0,0-.826-.354H46.5a1.062,1.062,0,0,1-.236-.826,1.3,1.3,0,0,0-1.3-1.534H37.173a1.421,1.421,0,0,0-1.3,1.534,1.3,1.3,0,0,1,0,.472h-.236a1.3,1.3,0,0,0-1.3,1.3V26.2H32.689M43.664,14.4h-5.31a3.186,3.186,0,0,1-1.3,2.124h-.118v9.913h.118a67.855,67.855,0,0,0,7.907-1.062h.118V16.639h-.118a3.3,3.3,0,0,1-1.3-1.77h-.118m7.317,11.919h0c-5.428,1.3-18.528,4.13-21.36.708a3.068,3.068,0,0,1-.472-3.3,1.3,1.3,0,0,1,.826-.708h.118V21.6h-.118c-3.186.236-5.31,1.652-7.435,3.068s-4.838,3.3-8.615,3.422h-.118V45.316h0c3.894,7.317,15.577,8.5,22.422,8.5,3.068,0,5.192-.236,5.192-.236,4.012-.118,4.484-.944,4.6-2.006a1.416,1.416,0,0,0-.354-1.3,2.95,2.95,0,0,0-1.652-.944,1.309,1.309,0,0,1,.236-2.6H46.85a2.478,2.478,0,0,0,2.478-2.478c0-1.18-.354-1.652-1.416-1.888a1.3,1.3,0,0,1,.236-2.6H48.5a3.3,3.3,0,0,0,2.95-3.186,2.478,2.478,0,0,0-1.888-2.36,1.309,1.309,0,0,1,.236-2.6h.236c1.534,0,3.3-1.3,3.3-2.478a2.478,2.478,0,0,0-2.36-2.478M11.093,24.9V50.39H0V24.9H11.093M4.248,44.844V46.5a1.3,1.3,0,0,0,2.6,0V44.844a1.3,1.3,0,0,0-2.6,0m2.6-4.838V28.794a1.3,1.3,0,1,0-2.6,0V40.005a1.3,1.3,0,0,0,2.6,0M54.521,3.776,38.707,0h-.236L36.937,6.609H50.744a1.218,1.218,0,0,1,1.3,1.3v5.31H52.4l2.36-9.559a.118.118,0,0,0,0-.118h-.118" fill="#fff"/></g></g></g></g></svg>