<svg xmlns="http://www.w3.org/2000/svg" xmlns:xlink="http://www.w3.org/1999/xlink" width="112" height="112" viewBox="0 0 112 112"><defs><clipPath id="a"><rect width="112" height="112" transform="translate(0.373)" fill="#fff" stroke="#707070" stroke-width="1"/></clipPath><clipPath id="b"><rect width="61.559" height="42.015" fill="none"/></clipPath></defs><g transform="translate(-0.373)"><circle cx="56" cy="56" r="56" transform="translate(0.373)" fill="#8dbbf6"/><g clip-path="url(#a)"><g transform="translate(55.934 56)"><g transform="translate(-30.779 -21.007)" clip-path="url(#b)"><path d="M16.483,15.306a3.364,3.364,0,1,0-3.2-3.364,3.364,3.364,0,0,0,3.2,3.364M56.176,0H5.382A5.382,5.382,0,0,0,0,5.382V36.666a5.382,5.382,0,0,0,5.382,5.382H56.176a5.382,5.382,0,0,0,5.382-5.382V5.382A5.382,5.382,0,0,0,56.176,0M16.483,6.055A5.887,5.887,0,1,1,10.6,11.942a6.055,6.055,0,0,1,5.887-5.887M14.128,33.3H10.092a1.346,1.346,0,1,1,0-2.691h4.037a1.346,1.346,0,1,1,0,2.691m-1.514-7.4-3.2-1.514a1.346,1.346,0,0,1-.5-1.682l1.85-3.7a1.346,1.346,0,0,1,2.355,1.177l-1.177,2.523,1.514.673a10.092,10.092,0,0,0,3.2.5,10.428,10.428,0,0,0,3.2-.5l1.514-.5-1.346-2.691a1.392,1.392,0,1,1,2.523-1.177l1.85,3.7a1.346,1.346,0,0,1-.5,1.682l-3.2,1.346a13.119,13.119,0,0,1-4.037.673,12.783,12.783,0,0,1-4.037-.673m26.911,7.4H20.015a1.346,1.346,0,1,1,0-2.691h19.51a1.346,1.346,0,1,1,0,2.691M28.088,21.192a1.346,1.346,0,0,1,1.346-1.346H48.1a1.346,1.346,0,0,1,0,2.691H29.434a1.346,1.346,0,0,1-1.346-1.346M51.972,33.134h-6.56a1.346,1.346,0,1,1,0-2.691H51.8a1.346,1.346,0,1,1,0,2.691m0-19.006H29.434a1.346,1.346,0,0,1,0-2.691H51.972a1.346,1.346,0,0,1,0,2.691" transform="translate(0)" fill="#fff"/></g></g></g></g></svg>