<svg xmlns="http://www.w3.org/2000/svg" xmlns:xlink="http://www.w3.org/1999/xlink" width="112" height="112" viewBox="0 0 112 112"><defs><clipPath id="a"><rect width="112" height="112" transform="translate(-0.136)" fill="#fff" stroke="#707070" stroke-width="1"/></clipPath><clipPath id="b"><rect width="52.622" height="63.869" fill="none"/></clipPath></defs><g transform="translate(0.136)"><circle cx="56" cy="56" r="56" transform="translate(-0.136)" fill="#9ed7d3"/><g clip-path="url(#a)"><g transform="translate(55.934 56)"><g transform="translate(-26.311 -31.934)" clip-path="url(#b)"><path d="M52.3,3.536c-10.428-1.6-4.973,15.723-16.043,16.043h-.481c-7.54.321-9.626-4.973-10.428-12.033h0A9.787,9.787,0,0,0,24.386,4.5a5.776,5.776,0,0,0-1.6-1.925,5.776,5.776,0,0,0-3.69-.963l-.321.321c0,.16-.963,15.723-.963,15.883S16.043,45.57,16.364,45.57H18.45c4.011.963,4.011,5.776,4.653,9.145a16.364,16.364,0,0,0,1.283,3.85h0c1.6,2.888,3.85,4.332,7.54,4.813,14.118,0,7.059-17.327,17.487-16.2h.16l.321-.321,2.727-43a.321.321,0,0,0-.321-.321M37.7,33.056h-.16a1.283,1.283,0,0,1-1.6-1.925L38.5,28.884a1.283,1.283,0,0,1,2.246.963l-.481,7.7a1.286,1.286,0,0,1-2.567-.16V33.216h-.16m-3.369-1.123V34.66a3.858,3.858,0,0,1-7.7-.481V31.612a3.858,3.858,0,1,1,7.7.481m-9.786-7.059a1.286,1.286,0,1,1,.16-2.567l19.894.963a1.283,1.283,0,0,1,0,2.567Zm20.375,18.29a1.283,1.283,0,0,1-1.283,1.283h0l-20.054-.963a1.286,1.286,0,0,1,.16-2.567l19.894.963a1.283,1.283,0,0,1,1.283,1.283M22.14,60.49c-4.492-.963-6.1-5.134-7.861-9.466s-3.85-4.813-6.9-4.011H7.059L0,5.461c0-.321,2.086-.8,3.85,0A6.738,6.738,0,0,1,7.38,9.472c1.925,5.134,3.69,8.5,7.861,9.466l-1.6,26.311a3.048,3.048,0,0,0,.963,2.407l.321.321a3.048,3.048,0,0,0,1.925.481,2.888,2.888,0,0,1,1.444.321,2.567,2.567,0,0,1,1.123,1.444c.963,3.209.963,6.578,2.567,9.786.16.16.321.642,0,.642m9.145-29.52a1.283,1.283,0,0,1,.321.8c-.16,1.123.321,4.011-1.444,3.85A1.283,1.283,0,0,1,28.878,34.5c.16-1.123-.321-4.011,1.444-3.85l.8.481h0M26.793,3.055A4.974,4.974,0,0,1,28.076,1.29,4.813,4.813,0,0,1,31.766.006h.16l2.888,16.525h-.8A4.973,4.973,0,0,1,30,14.445a23.1,23.1,0,0,1-1.925-7.38,15.562,15.562,0,0,0-1.283-4.011" transform="translate(0 -0.006)" fill="#fff"/></g></g></g></g></svg>