<svg xmlns="http://www.w3.org/2000/svg" xmlns:xlink="http://www.w3.org/1999/xlink" width="112" height="112" viewBox="0 0 112 112"><defs><clipPath id="a"><rect width="112" height="112" transform="translate(-0.226)" fill="#fff" stroke="#707070" stroke-width="1"/></clipPath><clipPath id="b"><rect width="56.067" height="62.089" fill="none"/></clipPath></defs><g transform="translate(0.226)"><circle cx="56" cy="56" r="56" transform="translate(-0.226)" fill="#c2bada"/><g clip-path="url(#a)"><g transform="translate(62.426 56)"><g transform="translate(-28.033 -31.045)" clip-path="url(#b)"><path d="M46.75,43.689a9.15,9.15,0,1,0,9.15,9.15,9.15,9.15,0,0,0-9.15-9.15M45.419,58.5h0l-.832-.333L41.26,54.669a1.165,1.165,0,0,1,0-1.83l.832-.333.832.333,2.329,2.329h.166l5.157-6.322a1.3,1.3,0,0,1,2,1.664L46.417,58l-.832.5M38.6,6.755h0V2.263h.333l4.658,4.326a.166.166,0,0,1,0,.166H38.6m-3.66,46.417a12.644,12.644,0,0,1,10.98-12.311h.166V9.749H37.267l-1-.333a1.331,1.331,0,0,1-.333-1V.1H0V57.331a2.995,2.995,0,0,0,3.161,2.995H36.934a.166.166,0,0,0,0-.166,12.311,12.311,0,0,1-2-6.988M6.322,33.707h27.95a1.331,1.331,0,1,1,0,2.662H6.322a1.331,1.331,0,0,1,0-2.662m34.272-9.483a1.331,1.331,0,0,1-1.331,1.331H6.322a1.331,1.331,0,1,1,0-2.662H39.263a1.331,1.331,0,0,1,1.331,1.331m-35.6-10.98a1.331,1.331,0,0,1,1.331-1.331H18.3a1.331,1.331,0,1,1,0,2.662H6.322a1.331,1.331,0,0,1-1.331-1.331" transform="translate(0 0.066)" fill="#fff"/></g></g></g></g></svg>