<svg xmlns="http://www.w3.org/2000/svg" xmlns:xlink="http://www.w3.org/1999/xlink" width="112" height="112" viewBox="0 0 112 112"><defs><clipPath id="a"><rect width="112" height="112" transform="translate(-0.136)" fill="#fff" stroke="#707070" stroke-width="1"/></clipPath><clipPath id="b"><rect width="64.646" height="41.316" fill="none"/></clipPath></defs><g transform="translate(0.136)"><circle cx="56" cy="56" r="56" transform="translate(-0.136)" fill="#fac383"/><g clip-path="url(#a)"><g transform="translate(55.934 56)"><g transform="translate(-32.323 -20.658)" clip-path="url(#b)"><path d="M56.586,0H34.458c-5.216,0-9.642,3.793-13.909,7.429h0c-3.793,3.161-7.271,6.164-11.38,7.113a9.958,9.958,0,0,0-3,1.264.158.158,0,0,0,0,.158,4.9,4.9,0,0,1-.316,5.374,4.742,4.742,0,0,1-3.161,1.9H.317A9.8,9.8,0,0,0,0,25.922v6.164H4.11a9.958,9.958,0,0,1,9.484-7.745,9.958,9.958,0,0,1,9.483,7.745H41.412A9.8,9.8,0,0,1,50.9,24.341a9.958,9.958,0,0,1,9.483,7.745h4.268V14.857H43.941a1.343,1.343,0,0,1,0-2.687H64.647V8.061A7.9,7.9,0,0,0,56.744,0M36.2,14.7H32.4a1.343,1.343,0,0,1,0-2.687H36.2a1.343,1.343,0,1,1,0,2.687M58.008,34.3a6.638,6.638,0,0,1-1.9,4.9,7.159,7.159,0,1,1,1.9-4.9M1.423,21.022H1.107a.158.158,0,0,1,0-.158,17.228,17.228,0,0,1,2.687-3.477H4.11a2.687,2.687,0,0,1-.474,2.529,2.687,2.687,0,0,1-1.9,1.106H1.423M20.548,34.141a6.955,6.955,0,0,1-7.113,7.113,7.113,7.113,0,1,1,7.113-7.113" transform="translate(-0.001)" fill="#fff"/></g></g></g></g></svg>