<?xml version="1.0" encoding="utf-8"?>
<!-- Generator: Adobe Illustrator 24.2.1, SVG Export Plug-In . SVG Version: 6.00 Build 0)  -->
<svg version="1.1" id="Capa_1" xmlns="http://www.w3.org/2000/svg" xmlns:xlink="http://www.w3.org/1999/xlink" x="0px" y="0px"
	 viewBox="0 0 50.46 50.46" style="enable-background:new 0 0 50.46 50.46;" xml:space="preserve">
<style type="text/css">
	.st0{fill:#0072BB;}
</style>
<path class="st0" d="M25.8,30.524c0.022-0.192,0.054-0.373,0.054-0.565c0-2.387-1.704-4.325-3.814-4.325
	c-2.099,0-3.803,1.939-3.803,4.325c0,0.192,0.022,0.373,0.042,0.565c-1.225,1.374-2.003,3.398-2.003,5.667
	c0,4.123,2.589,7.489,5.763,7.489c3.185,0,5.773-3.366,5.773-7.489C27.814,33.923,27.026,31.898,25.8,30.524z M22.04,27.339
	c0.948,0,1.736,0.777,2.003,1.832c-0.629-0.298-1.3-0.469-2.003-0.469c-0.703,0-1.374,0.17-1.992,0.469
	C20.315,28.117,21.103,27.339,22.04,27.339z M22.04,30.408c2.035,0,3.728,2.141,4.016,4.932h-8.022
	C18.323,32.549,20.005,30.408,22.04,30.408z M22.04,41.976c-2.035,0-3.718-2.152-4.005-4.932h8.022
	C25.768,39.824,24.075,41.976,22.04,41.976z M25.8,30.524c0.022-0.192,0.054-0.373,0.054-0.565c0-2.387-1.704-4.325-3.814-4.325
	c-2.099,0-3.803,1.939-3.803,4.325c0,0.192,0.022,0.373,0.042,0.565c-1.225,1.374-2.003,3.398-2.003,5.667
	c0,4.123,2.589,7.489,5.763,7.489c3.185,0,5.773-3.366,5.773-7.489C27.814,33.923,27.026,31.898,25.8,30.524z M22.04,27.339
	c0.948,0,1.736,0.777,2.003,1.832c-0.629-0.298-1.3-0.469-2.003-0.469c-0.703,0-1.374,0.17-1.992,0.469
	C20.315,28.117,21.103,27.339,22.04,27.339z M22.04,30.408c2.035,0,3.728,2.141,4.016,4.932h-8.022
	C18.323,32.549,20.005,30.408,22.04,30.408z M22.04,41.976c-2.035,0-3.718-2.152-4.005-4.932h8.022
	C25.768,39.824,24.075,41.976,22.04,41.976z M24.373,10.87c-0.362-0.298-0.895-0.256-1.204,0.106l-1.097,1.332l-0.841,1.023
	l-0.533-0.405l-0.362-0.277c-0.373-0.288-0.917-0.213-1.193,0.16c-0.288,0.373-0.213,0.905,0.16,1.193l1.544,1.172
	c0.16,0.118,0.33,0.181,0.511,0.181c0.256,0,0.49-0.106,0.661-0.309l2.471-2.983C24.789,11.701,24.735,11.169,24.373,10.87z
	 M24.373,10.87c-0.362-0.298-0.895-0.256-1.204,0.106l-1.097,1.332l-0.841,1.023l-0.533-0.405l-0.362-0.277
	c-0.373-0.288-0.917-0.213-1.193,0.16c-0.288,0.373-0.213,0.905,0.16,1.193l1.544,1.172c0.16,0.118,0.33,0.181,0.511,0.181
	c0.256,0,0.49-0.106,0.661-0.309l2.471-2.983C24.789,11.701,24.735,11.169,24.373,10.87z M24.373,10.87
	c-0.362-0.298-0.895-0.256-1.204,0.106l-1.097,1.332l-0.841,1.023l-0.533-0.405l-0.362-0.277c-0.373-0.288-0.917-0.213-1.193,0.16
	c-0.288,0.373-0.213,0.905,0.16,1.193l1.544,1.172c0.16,0.118,0.33,0.181,0.511,0.181c0.256,0,0.49-0.106,0.661-0.309l2.471-2.983
	C24.789,11.701,24.735,11.169,24.373,10.87z M25.8,30.524c0.022-0.192,0.054-0.373,0.054-0.565c0-2.387-1.704-4.325-3.814-4.325
	c-2.099,0-3.803,1.939-3.803,4.325c0,0.192,0.022,0.373,0.042,0.565c-1.225,1.374-2.003,3.398-2.003,5.667
	c0,4.123,2.589,7.489,5.763,7.489c3.185,0,5.773-3.366,5.773-7.489C27.814,33.923,27.026,31.898,25.8,30.524z M22.04,27.339
	c0.948,0,1.736,0.777,2.003,1.832c-0.629-0.298-1.3-0.469-2.003-0.469c-0.703,0-1.374,0.17-1.992,0.469
	C20.315,28.117,21.103,27.339,22.04,27.339z M22.04,30.408c2.035,0,3.728,2.141,4.016,4.932h-8.022
	C18.323,32.549,20.005,30.408,22.04,30.408z M22.04,41.976c-2.035,0-3.718-2.152-4.005-4.932h8.022
	C25.768,39.824,24.075,41.976,22.04,41.976z M25.8,30.524c0.022-0.192,0.054-0.373,0.054-0.565c0-2.387-1.704-4.325-3.814-4.325
	c-2.099,0-3.803,1.939-3.803,4.325c0,0.192,0.022,0.373,0.042,0.565c-1.225,1.374-2.003,3.398-2.003,5.667
	c0,4.123,2.589,7.489,5.763,7.489c3.185,0,5.773-3.366,5.773-7.489C27.814,33.923,27.026,31.898,25.8,30.524z M22.04,27.339
	c0.948,0,1.736,0.777,2.003,1.832c-0.629-0.298-1.3-0.469-2.003-0.469c-0.703,0-1.374,0.17-1.992,0.469
	C20.315,28.117,21.103,27.339,22.04,27.339z M22.04,30.408c2.035,0,3.728,2.141,4.016,4.932h-8.022
	C18.323,32.549,20.005,30.408,22.04,30.408z M22.04,41.976c-2.035,0-3.718-2.152-4.005-4.932h8.022
	C25.768,39.824,24.075,41.976,22.04,41.976z M25.8,30.524c0.022-0.192,0.054-0.373,0.054-0.565c0-2.387-1.704-4.325-3.814-4.325
	c-2.099,0-3.803,1.939-3.803,4.325c0,0.192,0.022,0.373,0.042,0.565c-1.225,1.374-2.003,3.398-2.003,5.667
	c0,4.123,2.589,7.489,5.763,7.489c3.185,0,5.773-3.366,5.773-7.489C27.814,33.923,27.026,31.898,25.8,30.524z M22.04,27.339
	c0.948,0,1.736,0.777,2.003,1.832c-0.629-0.298-1.3-0.469-2.003-0.469c-0.703,0-1.374,0.17-1.992,0.469
	C20.315,28.117,21.103,27.339,22.04,27.339z M22.04,30.408c2.035,0,3.728,2.141,4.016,4.932h-8.022
	C18.323,32.549,20.005,30.408,22.04,30.408z M22.04,41.976c-2.035,0-3.718-2.152-4.005-4.932h8.022
	C25.768,39.824,24.075,41.976,22.04,41.976z M25.8,30.524c0.022-0.192,0.054-0.373,0.054-0.565c0-2.387-1.704-4.325-3.814-4.325
	c-2.099,0-3.803,1.939-3.803,4.325c0,0.192,0.022,0.373,0.042,0.565c-1.225,1.374-2.003,3.398-2.003,5.667
	c0,4.123,2.589,7.489,5.763,7.489c3.185,0,5.773-3.366,5.773-7.489C27.814,33.923,27.026,31.898,25.8,30.524z M22.04,27.339
	c0.948,0,1.736,0.777,2.003,1.832c-0.629-0.298-1.3-0.469-2.003-0.469c-0.703,0-1.374,0.17-1.992,0.469
	C20.315,28.117,21.103,27.339,22.04,27.339z M22.04,30.408c2.035,0,3.728,2.141,4.016,4.932h-8.022
	C18.323,32.549,20.005,30.408,22.04,30.408z M22.04,41.976c-2.035,0-3.718-2.152-4.005-4.932h8.022
	C25.768,39.824,24.075,41.976,22.04,41.976z M25.8,30.524c0.022-0.192,0.054-0.373,0.054-0.565c0-2.387-1.704-4.325-3.814-4.325
	c-2.099,0-3.803,1.939-3.803,4.325c0,0.192,0.022,0.373,0.042,0.565c-1.225,1.374-2.003,3.398-2.003,5.667
	c0,4.123,2.589,7.489,5.763,7.489c3.185,0,5.773-3.366,5.773-7.489C27.814,33.923,27.026,31.898,25.8,30.524z M22.04,27.339
	c0.948,0,1.736,0.777,2.003,1.832c-0.629-0.298-1.3-0.469-2.003-0.469c-0.703,0-1.374,0.17-1.992,0.469
	C20.315,28.117,21.103,27.339,22.04,27.339z M22.04,30.408c2.035,0,3.728,2.141,4.016,4.932h-8.022
	C18.323,32.549,20.005,30.408,22.04,30.408z M22.04,41.976c-2.035,0-3.718-2.152-4.005-4.932h8.022
	C25.768,39.824,24.075,41.976,22.04,41.976z M25.8,30.524c0.022-0.192,0.054-0.373,0.054-0.565c0-2.387-1.704-4.325-3.814-4.325
	c-2.099,0-3.803,1.939-3.803,4.325c0,0.192,0.022,0.373,0.042,0.565c-1.225,1.374-2.003,3.398-2.003,5.667
	c0,4.123,2.589,7.489,5.763,7.489c3.185,0,5.773-3.366,5.773-7.489C27.814,33.923,27.026,31.898,25.8,30.524z M22.04,27.339
	c0.948,0,1.736,0.777,2.003,1.832c-0.629-0.298-1.3-0.469-2.003-0.469c-0.703,0-1.374,0.17-1.992,0.469
	C20.315,28.117,21.103,27.339,22.04,27.339z M22.04,30.408c2.035,0,3.728,2.141,4.016,4.932h-8.022
	C18.323,32.549,20.005,30.408,22.04,30.408z M22.04,41.976c-2.035,0-3.718-2.152-4.005-4.932h8.022
	C25.768,39.824,24.075,41.976,22.04,41.976z M25.8,30.524c0.022-0.192,0.054-0.373,0.054-0.565c0-2.387-1.704-4.325-3.814-4.325
	c-2.099,0-3.803,1.939-3.803,4.325c0,0.192,0.022,0.373,0.042,0.565c-1.225,1.374-2.003,3.398-2.003,5.667
	c0,4.123,2.589,7.489,5.763,7.489c3.185,0,5.773-3.366,5.773-7.489C27.814,33.923,27.026,31.898,25.8,30.524z M22.04,27.339
	c0.948,0,1.736,0.777,2.003,1.832c-0.629-0.298-1.3-0.469-2.003-0.469c-0.703,0-1.374,0.17-1.992,0.469
	C20.315,28.117,21.103,27.339,22.04,27.339z M22.04,30.408c2.035,0,3.728,2.141,4.016,4.932h-8.022
	C18.323,32.549,20.005,30.408,22.04,30.408z M22.04,41.976c-2.035,0-3.718-2.152-4.005-4.932h8.022
	C25.768,39.824,24.075,41.976,22.04,41.976z M46.489,19.253l-3.718-1.151c-0.213-0.074-0.447-0.054-0.65,0.054
	c-0.202,0.106-0.352,0.298-0.415,0.511L41.6,19.019c-0.831-0.661-1.918-1.726-2.876-2.972V2.742
	C38.723,2.188,38.265,1.73,37.71,1.73H6.381c-0.565,0-1.012,0.458-1.012,1.012v44.976c0,0.564,0.447,1.011,1.012,1.011h31.33
	c0.554,0,1.012-0.447,1.012-1.012V29.64c0.096,0.17,0.256,0.309,0.447,0.373l3.75,1.214c0.096,0.022,0.181,0.032,0.266,0.032
	c0.362,0,0.693-0.224,0.809-0.586c0.149-0.447-0.096-0.927-0.543-1.076h-0.022l-2.94-0.959l2.599-8.661l2.887,0.905
	c0.01,0,0.01,0,0.022,0c0.447,0.128,0.916-0.118,1.055-0.565C47.191,19.871,46.935,19.393,46.489,19.253z M36.699,46.706H7.392
	V3.754h29.305v9.587c-2.493-2.248-6.552-1.768-7.148-1.672l-0.256-2.855h2.961c0.469,0,0.853-0.384,0.853-0.853
	s-0.384-0.853-0.853-0.853H11.824c-0.469,0-0.853,0.384-0.853,0.853s0.384,0.853,0.853,0.853h2.972l-0.991,11.207
	c-0.022,0.234,0.064,0.469,0.224,0.65c0.16,0.17,0.394,0.277,0.629,0.277h8.778c0.522,0.767,1.289,1.14,1.364,1.183
	c0.022,0.01,2.483,1.257,4.389,2.12c1.119,0.49,1.332,0.757,1.726,1.225c0.213,0.256,0.469,0.565,0.895,0.948
	c1.214,1.119,2.919,1.246,3.43,1.257l1.46,0.426L36.699,46.706L36.699,46.706z M28.325,17.294l-0.735-0.32
	c-0.149-0.064-1.47-0.713-2.738-0.277c-0.681,0.234-1.225,0.735-1.566,1.46c-0.17,0.362-0.266,0.725-0.298,1.087h-7.403
	l0.916-10.429H27.58L28.325,17.294z M39.18,27.062l-3.58-1.044c-0.086-0.022-0.181-0.032-0.256-0.032c-0.032,0-1.48,0-2.387-0.821
	c-0.341-0.309-0.543-0.554-0.735-0.789c-0.543-0.639-0.969-1.076-2.333-1.684c-1.875-0.841-4.293-2.077-4.357-2.099
	c0-0.01-0.607-0.309-0.799-0.821c-0.096-0.256-0.064-0.554,0.096-0.895c0.192-0.394,0.415-0.511,0.565-0.565
	c0.511-0.181,1.193,0.074,1.47,0.213l5.252,2.184c0.384,0.149,1.332,0.415,1.854-0.234c0.362-0.447,0.309-1.044-0.16-1.779
	c-0.937-1.449-2.471-1.652-3.217-1.747c-0.096-0.01-0.192-0.022-0.245-0.032c-0.106-0.032-0.213-0.032-0.309-0.022
	c-0.01,0-0.022-0.01-0.032,0l-0.256-2.866l-0.064-0.671c0.01-0.01,0.032,0,0.054,0c0.042-0.01,4.826-0.735,6.509,2.088
	c1.268,2.152,3.345,4.271,4.826,5.305L39.18,27.062z M25.854,29.96c0-2.387-1.704-4.325-3.814-4.325
	c-2.099,0-3.803,1.939-3.803,4.325c0,0.192,0.022,0.373,0.042,0.565c-1.225,1.374-2.003,3.398-2.003,5.667
	c0,4.123,2.589,7.489,5.763,7.489c3.185,0,5.773-3.366,5.773-7.489c0-2.269-0.789-4.293-2.013-5.667
	C25.822,30.332,25.854,30.152,25.854,29.96z M22.04,27.339c0.948,0,1.736,0.777,2.003,1.832c-0.629-0.298-1.3-0.469-2.003-0.469
	c-0.703,0-1.374,0.17-1.992,0.469C20.315,28.117,21.103,27.339,22.04,27.339z M22.04,41.976c-2.035,0-3.718-2.152-4.005-4.932h8.022
	C25.768,39.824,24.075,41.976,22.04,41.976z M26.056,35.34h-8.022c0.288-2.791,1.971-4.932,4.005-4.932S25.768,32.549,26.056,35.34z
	 M20.848,15.174c0.16,0.118,0.33,0.181,0.511,0.181c0.256,0,0.49-0.106,0.661-0.309l2.471-2.983
	c0.298-0.362,0.245-0.895-0.118-1.193c-0.363-0.298-0.895-0.256-1.204,0.106l-1.097,1.332l-0.841,1.023l-0.533-0.405l-0.362-0.277
	c-0.373-0.288-0.917-0.213-1.193,0.16c-0.288,0.373-0.213,0.905,0.16,1.193L20.848,15.174z M25.8,30.524
	c0.022-0.192,0.054-0.373,0.054-0.565c0-2.387-1.704-4.325-3.814-4.325c-2.099,0-3.803,1.939-3.803,4.325
	c0,0.192,0.022,0.373,0.042,0.565c-1.225,1.374-2.003,3.398-2.003,5.667c0,4.123,2.589,7.489,5.763,7.489
	c3.185,0,5.773-3.366,5.773-7.489C27.814,33.923,27.026,31.898,25.8,30.524z M22.04,27.339c0.948,0,1.736,0.777,2.003,1.832
	c-0.629-0.298-1.3-0.469-2.003-0.469c-0.703,0-1.374,0.17-1.992,0.469C20.315,28.117,21.103,27.339,22.04,27.339z M22.04,30.408
	c2.035,0,3.728,2.141,4.016,4.932h-8.022C18.323,32.549,20.005,30.408,22.04,30.408z M22.04,41.976
	c-2.035,0-3.718-2.152-4.005-4.932h8.022C25.768,39.824,24.075,41.976,22.04,41.976z M25.8,30.524
	c0.022-0.192,0.054-0.373,0.054-0.565c0-2.387-1.704-4.325-3.814-4.325c-2.099,0-3.803,1.939-3.803,4.325
	c0,0.192,0.022,0.373,0.042,0.565c-1.225,1.374-2.003,3.398-2.003,5.667c0,4.123,2.589,7.489,5.763,7.489
	c3.185,0,5.773-3.366,5.773-7.489C27.814,33.923,27.026,31.898,25.8,30.524z M22.04,27.339c0.948,0,1.736,0.777,2.003,1.832
	c-0.629-0.298-1.3-0.469-2.003-0.469c-0.703,0-1.374,0.17-1.992,0.469C20.315,28.117,21.103,27.339,22.04,27.339z M22.04,30.408
	c2.035,0,3.728,2.141,4.016,4.932h-8.022C18.323,32.549,20.005,30.408,22.04,30.408z M22.04,41.976
	c-2.035,0-3.718-2.152-4.005-4.932h8.022C25.768,39.824,24.075,41.976,22.04,41.976z M25.8,30.524
	c0.022-0.192,0.054-0.373,0.054-0.565c0-2.387-1.704-4.325-3.814-4.325c-2.099,0-3.803,1.939-3.803,4.325
	c0,0.192,0.022,0.373,0.042,0.565c-1.225,1.374-2.003,3.398-2.003,5.667c0,4.123,2.589,7.489,5.763,7.489
	c3.185,0,5.773-3.366,5.773-7.489C27.814,33.923,27.026,31.898,25.8,30.524z M22.04,27.339c0.948,0,1.736,0.777,2.003,1.832
	c-0.629-0.298-1.3-0.469-2.003-0.469c-0.703,0-1.374,0.17-1.992,0.469C20.315,28.117,21.103,27.339,22.04,27.339z M22.04,30.408
	c2.035,0,3.728,2.141,4.016,4.932h-8.022C18.323,32.549,20.005,30.408,22.04,30.408z M22.04,41.976
	c-2.035,0-3.718-2.152-4.005-4.932h8.022C25.768,39.824,24.075,41.976,22.04,41.976z M25.8,30.524
	c0.022-0.192,0.054-0.373,0.054-0.565c0-2.387-1.704-4.325-3.814-4.325c-2.099,0-3.803,1.939-3.803,4.325
	c0,0.192,0.022,0.373,0.042,0.565c-1.225,1.374-2.003,3.398-2.003,5.667c0,4.123,2.589,7.489,5.763,7.489
	c3.185,0,5.773-3.366,5.773-7.489C27.814,33.923,27.026,31.898,25.8,30.524z M22.04,27.339c0.948,0,1.736,0.777,2.003,1.832
	c-0.629-0.298-1.3-0.469-2.003-0.469c-0.703,0-1.374,0.17-1.992,0.469C20.315,28.117,21.103,27.339,22.04,27.339z M22.04,30.408
	c2.035,0,3.728,2.141,4.016,4.932h-8.022C18.323,32.549,20.005,30.408,22.04,30.408z M22.04,41.976
	c-2.035,0-3.718-2.152-4.005-4.932h8.022C25.768,39.824,24.075,41.976,22.04,41.976z M25.8,30.524
	c0.022-0.192,0.054-0.373,0.054-0.565c0-2.387-1.704-4.325-3.814-4.325c-2.099,0-3.803,1.939-3.803,4.325
	c0,0.192,0.022,0.373,0.042,0.565c-1.225,1.374-2.003,3.398-2.003,5.667c0,4.123,2.589,7.489,5.763,7.489
	c3.185,0,5.773-3.366,5.773-7.489C27.814,33.923,27.026,31.898,25.8,30.524z M22.04,27.339c0.948,0,1.736,0.777,2.003,1.832
	c-0.629-0.298-1.3-0.469-2.003-0.469c-0.703,0-1.374,0.17-1.992,0.469C20.315,28.117,21.103,27.339,22.04,27.339z M22.04,30.408
	c2.035,0,3.728,2.141,4.016,4.932h-8.022C18.323,32.549,20.005,30.408,22.04,30.408z M22.04,41.976
	c-2.035,0-3.718-2.152-4.005-4.932h8.022C25.768,39.824,24.075,41.976,22.04,41.976z M24.373,10.87
	c-0.362-0.298-0.895-0.256-1.204,0.106l-1.097,1.332l-0.841,1.023l-0.533-0.405l-0.362-0.277c-0.373-0.288-0.917-0.213-1.193,0.16
	c-0.288,0.373-0.213,0.905,0.16,1.193l1.544,1.172c0.16,0.118,0.33,0.181,0.511,0.181c0.256,0,0.49-0.106,0.661-0.309l2.471-2.983
	C24.789,11.701,24.735,11.169,24.373,10.87z"/>
</svg>
